<?xml version="1.0" standalone="no"?>
<!DOCTYPE svg PUBLIC "-//W3C//DTD SVG 20010904//EN"
 "http://www.w3.org/TR/2001/REC-SVG-20010904/DTD/svg10.dtd">
<svg version="1.0" xmlns="http://www.w3.org/2000/svg"
 width="512.000000pt" height="512.000000pt" viewBox="0 0 512.000000 512.000000"
 preserveAspectRatio="xMidYMid meet">
<metadata>
Created by potrace 1.14, written by Peter Selinger 2001-2017
</metadata>
<g transform="translate(0.000000,512.000000) scale(0.100000,-0.100000)"
fill="#000000" stroke="none">
<path d="M2114 4080 c-79 -16 -158 -66 -212 -135 -17 -21 -40 -30 -125 -50
-412 -93 -814 -315 -1116 -616 -47 -46 -194 -212 -328 -368 -257 -299 -297
-359 -322 -479 -55 -267 96 -545 349 -642 l55 -21 2 -78 c5 -246 152 -467 379
-567 116 -51 148 -54 710 -54 475 0 525 -2 560 -17 35 -16 77 -18 399 -18 319
0 365 2 404 18 40 15 97 17 650 17 655 0 684 2 798 55 226 103 373 325 377
567 l1 78 54 17 c160 50 315 222 356 394 17 76 19 177 4 251 -25 120 -65 179
-324 482 -260 304 -393 443 -432 452 -14 4 -33 0 -49 -11 -25 -16 -26 -15 -89
32 -60 45 -64 50 -59 80 9 51 -4 72 -79 120 -281 180 -606 299 -947 348 -89
12 -98 15 -136 53 -51 48 -112 78 -183 92 -63 12 -637 12 -697 0z m1114 -1825
c177 -44 324 -102 738 -288 248 -112 433 -189 469 -197 33 -6 70 -14 83 -16
19 -4 22 -10 22 -57 0 -176 -110 -345 -277 -425 l-78 -37 -559 -3 c-533 -3
-558 -2 -551 15 4 10 13 39 18 64 l11 47 58 4 c70 5 101 30 101 79 0 50 -40
79 -109 79 l-54 0 0 88 c0 96 -12 125 -55 136 -24 6 -25 9 -25 86 0 77 1 80
25 86 49 12 55 35 55 206 0 137 2 158 16 158 8 0 59 -11 112 -25z m-1398 -335
l0 -320 -50 0 c-41 0 -56 -5 -75 -25 -24 -24 -31 -57 -19 -90 9 -24 58 -45
104 -45 l40 0 0 -47 c0 -46 8 -91 24 -141 l8 -23 -469 3 -468 3 -78 37 c-167
80 -277 249 -277 425 l0 52 38 6 c99 15 165 40 537 208 326 147 637 274 678
276 4 1 7 -143 7 -319z"/>
<path d="M3280 2013 c-16 -20 -20 -36 -16 -58 10 -48 39 -65 113 -65 55 0 67
4 88 25 30 30 32 64 4 99 -19 24 -26 26 -94 26 -68 0 -75 -2 -95 -27z"/>
<path d="M3680 1723 c-60 -22 -77 -86 -35 -128 22 -23 32 -25 115 -25 99 0
122 11 136 66 8 31 -21 75 -57 85 -29 8 -138 10 -159 2z"/>
<path d="M1510 1882 c-38 -38 -38 -66 0 -104 30 -30 31 -30 126 -26 86 3 98 5
115 27 10 13 19 36 19 51 0 15 -9 38 -19 51 -17 22 -29 24 -115 27 -95 4 -96
4 -126 -26z"/>
<path d="M939 1571 c-16 -16 -29 -39 -29 -51 0 -12 13 -35 29 -51 l29 -29 142
0 142 0 29 29 c16 16 29 39 29 51 0 12 -13 35 -29 51 l-29 29 -142 0 -142 0
-29 -29z"/>
</g>
</svg>
